<svg xmlns="http://www.w3.org/2000/svg" version="1.1" xmlns:xlink="http://www.w3.org/1999/xlink" xmlns:svgjs="http://svgjs.dev/svgjs" width="2000" height="1403" viewBox="0 0 2000 1403"><g transform="matrix(1,0,0,1,1.1598675043653657,0.5680161943320172)"><svg viewBox="0 0 352 247" data-background-color="#90adbb" preserveAspectRatio="xMidYMid meet" height="1403" width="2000" xmlns="http://www.w3.org/2000/svg" xmlns:xlink="http://www.w3.org/1999/xlink"><g id="tight-bounds" transform="matrix(1,0,0,1,-0.2041366807683005,-0.09999999999999432)"><svg viewBox="0 0 352.4082733615366 247.2" height="247.2" width="352.4082733615366"><g><svg viewBox="0 0 395.52 277.44111415822204" height="247.2" width="352.4082733615366"><g transform="matrix(1,0,0,1,0,171.46973893526362)"><svg viewBox="0 0 395.52 105.97137522295839" height="105.97137522295839" width="395.52"><g id="textblocktransform"><svg viewBox="0 0 395.52 105.97137522295839" height="105.97137522295839" width="395.52" id="textblock"><g><svg viewBox="0 0 395.52 105.97137522295839" height="105.97137522295839" width="395.52"><g transform="matrix(1,0,0,1,0,0)"><svg width="395.52" viewBox="2.2699999809265137 -35.54999923706055 134.48567724227905 36.040000915527344" height="105.97137522295839" data-palette-color="#f6f6f6"><g transform="matrix(1,0,0,1,0,0)"><g><svg width="6.590447425842285" viewBox="3.1600000858306885 -36.36000061035156 28.68000030517578 36.36000061035156" height="8.357421875" data-palette-color="#f6f6f6" id="scriptelement" x="130.16522645950317" y="-35.54999923706055"><path d="M10.85 0L3.16 0 3.16-36.36 17.51-36.36Q21.63-36.36 24.55-34.9 27.47-33.43 29-30.76 30.54-28.09 30.54-24.49L30.54-24.49Q30.54-20.86 28.98-18.26 27.41-15.66 24.46-14.28 21.5-12.89 17.31-12.89L17.31-12.89 7.71-12.89 7.71-19.07 16.07-19.07Q18.27-19.07 19.73-19.67 21.18-20.28 21.9-21.48 22.62-22.69 22.62-24.49L22.62-24.49Q22.62-26.3 21.9-27.54 21.18-28.78 19.72-29.43 18.25-30.08 16.03-30.08L16.03-30.08 10.85-30.08 10.85 0ZM14.51-16.55L22.8-16.55 31.84 0 23.35 0 14.51-16.55Z" opacity="1" transform="matrix(1,0,0,1,0,0)" fill="#000000" class="undefined-123" data-fill-palette-color="primary" id="p-123"></path></svg></g></g><path d="M14.4 0.49L14.4 0.49Q10.72 0.49 8-1.16 5.27-2.81 3.77-5.69 2.27-8.57 2.27-12.28L2.27-12.28 2.27-13.33Q2.27-17.63 3.92-20.67 5.57-23.71 8.22-25.31 10.86-26.9 13.82-26.9L13.82-26.9Q17.63-26.9 20.03-25.21 22.44-23.51 23.57-20.59 24.71-17.68 24.71-13.99L24.71-13.99 24.71-11.96 4.98-11.96 4.98-15.63 20.14-15.63 20.14-15.97Q20.04-17.72 19.43-19.4 18.82-21.07 17.48-22.16 16.14-23.24 13.82-23.24L13.82-23.24Q11.77-23.24 10.19-22.08 8.62-20.92 7.73-18.71 6.84-16.5 6.84-13.33L6.84-13.33 6.84-12.28Q6.84-9.77 7.76-7.7 8.69-5.64 10.45-4.41 12.21-3.17 14.65-3.17L14.65-3.17Q17.04-3.17 18.7-4.15 20.36-5.13 21.61-6.76L21.61-6.76 24.37-4.61Q23.1-2.66 20.72-1.09 18.33 0.49 14.4 0.49ZM42.14-5.37L52.59-35.55 57.74-35.55 44.58 0 40.92 0 42.14-5.37ZM32.39-35.55L42.75-5.37 44.04 0 40.38 0 27.24-35.55 32.39-35.55ZM59.52-12.92L59.52-13.48Q59.52-17.31 60.98-20.34 62.45-23.36 65.13-25.13 67.82-26.9 71.5-26.9L71.5-26.9Q75.24-26.9 77.95-25.13 80.66-23.36 82.11-20.34 83.56-17.31 83.56-13.48L83.56-13.48 83.56-12.92Q83.56-9.11 82.11-6.07 80.66-3.03 77.96-1.27 75.26 0.49 71.55 0.49L71.55 0.49Q67.84 0.49 65.14-1.27 62.45-3.03 60.98-6.07 59.52-9.11 59.52-12.92L59.52-12.92ZM64.08-13.48L64.08-12.92Q64.08-10.3 64.91-8.08 65.74-5.86 67.39-4.52 69.04-3.17 71.55-3.17L71.55-3.17Q74.04-3.17 75.69-4.52 77.34-5.86 78.17-8.08 79-10.3 79-12.92L79-12.92 79-13.48Q79-16.09 78.17-18.31 77.34-20.53 75.68-21.89 74.02-23.24 71.5-23.24L71.5-23.24Q69.04-23.24 67.38-21.89 65.72-20.53 64.9-18.31 64.08-16.09 64.08-13.48L64.08-13.48ZM100.33-26.42L100.33-22.97 86.03-22.97 86.03-26.42 100.33-26.42ZM90.84-32.84L95.4-32.84 95.4-6.54Q95.4-5.18 95.82-4.49 96.23-3.81 96.89-3.59 97.55-3.37 98.31-3.37L98.31-3.37Q98.87-3.37 99.49-3.47 100.11-3.56 100.41-3.64L100.41-3.64 100.43 0Q99.89 0.17 99.03 0.33 98.16 0.49 96.94 0.49L96.94 0.49Q95.28 0.49 93.89-0.17 92.5-0.83 91.67-2.38 90.84-3.93 90.84-6.57L90.84-6.57 90.84-32.84ZM116.57 0.49L116.57 0.49Q112.88 0.49 110.16-1.16 107.44-2.81 105.93-5.69 104.43-8.57 104.43-12.28L104.43-12.28 104.43-13.33Q104.43-17.63 106.08-20.67 107.73-23.71 110.38-25.31 113.03-26.9 115.98-26.9L115.98-26.9Q119.79-26.9 122.19-25.21 124.6-23.51 125.73-20.59 126.87-17.68 126.87-13.99L126.87-13.99 126.87-11.96 107.14-11.96 107.14-15.63 122.3-15.63 122.3-15.97Q122.21-17.72 121.6-19.4 120.99-21.07 119.64-22.16 118.3-23.24 115.98-23.24L115.98-23.24Q113.93-23.24 112.36-22.08 110.78-20.92 109.89-18.71 109-16.5 109-13.33L109-13.33 109-12.28Q109-9.77 109.93-7.7 110.85-5.64 112.61-4.41 114.37-3.17 116.81-3.17L116.81-3.17Q119.2-3.17 120.86-4.15 122.52-5.13 123.77-6.76L123.77-6.76 126.53-4.61Q125.26-2.66 122.88-1.09 120.5 0.49 116.57 0.49Z" opacity="1" transform="matrix(1,0,0,1,0,0)" fill="#000000" class="wordmark-text-0" data-fill-palette-color="primary" id="text-0"></path></svg></g></svg></g></svg></g></svg></g><g transform="matrix(1,0,0,1,124.53377972093574,0)"><svg viewBox="0 0 146.4524405581285 146.4524405581285" height="146.4524405581285" width="146.4524405581285"><g><svg></svg></g><g id="icon-0"><svg viewBox="0 0 146.4524405581285 146.4524405581285" height="146.4524405581285" width="146.4524405581285"><g><path xmlns="http://www.w3.org/2000/svg" d="M43.936 146.452c-24.265 0-43.936-19.671-43.936-43.935v-58.581c0-24.265 19.671-43.936 43.936-43.936h58.581c24.265 0 43.936 19.671 43.935 43.936v58.581c0 24.265-19.671 43.936-43.935 43.935z" fill="#000000" fill-rule="nonzero" stroke="none" stroke-width="1" stroke-linecap="butt" stroke-linejoin="miter" stroke-miterlimit="10" stroke-dasharray="" stroke-dashoffset="0" font-family="none" font-weight="none" font-size="none" text-anchor="none" style="mix-blend-mode: normal" data-fill-palette-color="accent"></path></g><g transform="matrix(1,0,0,1,29.2904881116257,53.28969556530954)"><svg viewBox="0 0 87.8714643348771 39.87304942750942" height="39.87304942750942" width="87.8714643348771"><g><svg xmlns="http://www.w3.org/2000/svg" xmlns:xlink="http://www.w3.org/1999/xlink" version="1.1" x="0" y="0" viewBox="92.73999786376953 112 70.52098846435547 32" enable-background="new 0 0 256 256" xml:space="preserve" height="39.87304942750942" width="87.8714643348771" class="icon-s-0" data-fill-palette-color="quaternary" id="s-0"><g fill="#90adbb" data-fill-palette-color="quaternary"><path fill="#ffffff" d="M112 118.37c0-3.518 2.85-6.37 6.367-6.37 3.521 0 6.37 2.853 6.37 6.37 0 3.523-2.85 6.37-6.37 6.37C114.85 124.74 112 121.894 112 118.37L112 118.37z" data-fill-palette-color="quaternary"></path><path fill="#ffffff" d="M92.74 137.637c0-3.523 2.85-6.377 6.367-6.377 3.521 0 6.37 2.854 6.37 6.377 0 3.511-2.85 6.363-6.37 6.363C95.589 144 92.74 141.147 92.74 137.637L92.74 137.637z" data-fill-palette-color="quaternary"></path><path fill="#ffffff" d="M112 137.637c0-3.523 2.85-6.377 6.367-6.377 3.521 0 6.37 2.854 6.37 6.377 0 3.511-2.85 6.363-6.37 6.363C114.85 144 112 141.147 112 137.637L112 137.637z" data-fill-palette-color="quaternary"></path><path fill="#ffffff" d="M131.26 118.37c0-3.518 2.85-6.37 6.37-6.37 3.518 0 6.37 2.853 6.37 6.37 0 3.523-2.853 6.37-6.37 6.37C134.11 124.74 131.26 121.894 131.26 118.37L131.26 118.37z" data-fill-palette-color="quaternary"></path><path fill="#ffffff" d="M150.521 118.37c0-3.518 2.853-6.37 6.37-6.37 3.518 0 6.37 2.853 6.37 6.37 0 3.523-2.853 6.37-6.37 6.37C153.373 124.74 150.521 121.894 150.521 118.37L150.521 118.37z" data-fill-palette-color="quaternary"></path><path fill="#ffffff" d="M131.26 137.637c0-3.523 2.85-6.377 6.37-6.377 3.518 0 6.37 2.854 6.37 6.377 0 3.511-2.853 6.363-6.37 6.363C134.11 144 131.26 141.147 131.26 137.637L131.26 137.637z" data-fill-palette-color="quaternary"></path></g></svg></g></svg></g></svg></g></svg></g><g></g></svg></g><defs></defs></svg><rect width="352.4082733615366" height="247.2" fill="none" stroke="none" visibility="hidden"></rect></g></svg></g></svg>